HIERARCHY
ROOT Hips
{
	OFFSET 0.00000 0.00000 0.00000
	CHANNELS 6 Xposition Yposition Zposition Zrotation Yrotation Xrotation 
	JOINT LHipJoint
	{
		OFFSET 0 0 0
		CHANNELS 3 Zrotation Yrotation Xrotation
		JOINT LeftHip
		{
			OFFSET 1.60223 -1.58443 0.78595
			CHANNELS 3 Zrotation Yrotation Xrotation
			JOINT LeftKnee
			{
				OFFSET 2.21690 -6.09089 0.00000
				CHANNELS 3 Zrotation Yrotation Xrotation
				JOINT LeftAnkle
				{
					OFFSET 2.34805 -6.45122 0.00000
					CHANNELS 3 Zrotation Yrotation Xrotation
					JOINT LeftToe
					{
						OFFSET 0.35452 -0.97402 1.38549
						CHANNELS 3 Zrotation Yrotation Xrotation
						End Site
						{
							OFFSET 0.00000 -0.00000 0.82816
						}
					}
				}
			}
		}
	}
	JOINT RHipJoint
	{
		OFFSET 0 0 0
		CHANNELS 3 Zrotation Yrotation Xrotation
		JOINT RightHip
		{
			OFFSET -1.56524 -1.58443 0.78595
			CHANNELS 3 Zrotation Yrotation Xrotation
			JOINT RightKnee
			{
				OFFSET -2.15558 -5.92241 0.00000
				CHANNELS 3 Zrotation Yrotation Xrotation
				JOINT RightAnkle
				{
					OFFSET -2.35077 -6.45870 0.00000
					CHANNELS 3 Zrotation Yrotation Xrotation
					JOINT RightToe
					{
						OFFSET -0.26910 -0.73935 1.33295
						CHANNELS 3 Zrotation Yrotation Xrotation
						End Site
						{
							OFFSET -0.00000 -0.00000 0.75962
						}
					}
				}
			}
		}
	}
	JOINT lowerback
	{
		OFFSET 0 0 0
		CHANNELS 3 Zrotation Yrotation Xrotation
		JOINT Chest
		{
			OFFSET -0.05489 1.97104 -0.02993
			CHANNELS 3 Zrotation Yrotation Xrotation
			JOINT Chest2
			{
				OFFSET -0.00702 1.94230 0.13626
				CHANNELS 3 Zrotation Yrotation Xrotation
				JOINT lowerneck
				{
					OFFSET 0 0 0
					CHANNELS 3 Zrotation Yrotation Xrotation
					JOINT Neck
					{
						OFFSET -0.07858 1.62869 -0.02510
						CHANNELS 3 Zrotation Yrotation Xrotation
						JOINT Head
						{
							OFFSET 0.13978 1.59213 -0.29859
							CHANNELS 3 Zrotation Yrotation Xrotation
							End Site
							{
								OFFSET 0.05353 1.64420 -0.10000
							}
						}
					}
				}
				JOINT LeftCollar
				{
					OFFSET 0 0 0
					CHANNELS 3 Zrotation Yrotation Xrotation
					JOINT LeftShoulder
					{
						OFFSET 3.48263 1.15278 0.52941
CHANNELS 3 Zrotation Xrotation Yrotation
						JOINT LeftElbow
						{
OFFSET 0 -4.592070 -0.000000
CHANNELS 3 Zrotation Xrotation Yrotation
							JOINT LeftWrist
							{
OFFSET 0 -2.981090 -0.000000
CHANNELS 3 Zrotation Xrotation Yrotation
								JOINT lhand
								{
									OFFSET 0 0 0
CHANNELS 3 Zrotation Xrotation Yrotation
									JOINT LFingers
									{
OFFSET 0 -0.480200 -0.000000
CHANNELS 3 Zrotation Xrotation Yrotation
										End Site
										{
OFFSET 0 -0.387150 -0.000000
										}
									}
								}
								JOINT LThumb
								{
OFFSET 0 0.000000 0.000000
CHANNELS 3 Zrotation Xrotation Yrotation
									End Site
									{
OFFSET 0 -0.393060 0.393060
									}
								}
							}
						}
					}
				}
				JOINT RightCollar
				{
					OFFSET 0 0 0
					CHANNELS 3 Zrotation Yrotation Xrotation
					JOINT RightShoulder
					{
						OFFSET -3.52496 1.12722 0.24548
CHANNELS 3 Zrotation Xrotation Yrotation
						JOINT RightElbow
						{
OFFSET 0 -4.765080 -0.000000
CHANNELS 3 Zrotation Xrotation Yrotation
							JOINT RightWrist
							{
OFFSET 0 -2.789020 -0.000000
CHANNELS 3 Zrotation Xrotation Yrotation
								JOINT rhand
								{
									OFFSET 0 0 0
CHANNELS 3 Zrotation Xrotation Yrotation
									JOINT RFingers
									{
OFFSET 0 -0.721300 -0.000000
CHANNELS 3 Zrotation Xrotation Yrotation
										End Site
										{
OFFSET 0 -0.581530 -0.000000
										}
									}
								}
								JOINT RThumb
								{
OFFSET 0 0.000000 0.000000
CHANNELS 3 Zrotation Xrotation Yrotation
									End Site
									{
OFFSET 0 -0.590410 0.590410
									}
								}
							}
						}
					}
				}
			}
		}
	}
}
MOTION
Frames: 10
Frame Time: 0.008333333333333333
-10.685625 16.202232 0.303047 -20.986054 141.970988 -372.104160 0.000000 0.000000 0.000000 -32.457304 -1.490354 5.923354 1.506301 7.749998 21.957987 -0.294094 -9.805498 1.351714 0.281339 3.397218 9.388087 0.000000 0.000000 0.000000 2.652923 -19.532399 -48.202546 -4.884795 -13.251607 40.319984 3.168849 -32.079144 -26.364657 -1.573151 -7.872609 22.349946 -9.477749 -1.194023 6.066384 -5.400834 -2.483042 -4.244354 -0.142843 -0.694823 -7.773869 -14.229329 -18.089323 11.665768 12.840583 -25.395590 -6.166734 6.061008 -12.975593 -0.240999 0.000000 0.000000 0.000000 -0.190531 19.759828 -40.004626 115.673717 -57.353964 82.036222 -3.083676 6.681959 -33.578358 0.000000 0.000000 0.000000 -7.125000 0.000000 0.000000 -39.961842 58.812784 14.995075 0.000000 0.000000 0.000000 -40.251839 6.234533 -57.331810 -63.808982 -57.242159 -37.527909 -10.416350 -40.562089 -51.159212 0.000000 0.000000 0.000000 7.125000 0.000000 0.000000 14.459334 -20.294717 19.049924
-9.454065 16.249449 0.250594 -20.966236 138.171160 -372.770304 0.000000 0.000000 0.000000 -29.476689 -2.921330 6.224068 2.215889 9.298549 26.736308 0.066568 -3.810705 7.657172 0.265103 3.306082 9.132643 0.000000 0.000000 0.000000 6.328495 -17.149762 -45.227199 -5.559262 -13.986973 43.185832 1.889674 -27.581443 -26.415254 -0.094782 -1.873709 5.160879 -10.155172 -1.707454 5.085630 -5.227351 -3.160752 -5.479036 0.449677 -0.908017 -8.472983 -14.125861 -17.406940 11.745143 11.475007 -24.608952 -3.880839 5.620069 -12.559252 0.137239 0.000000 0.000000 0.000000 2.568746 20.697087 -42.380064 119.638102 -56.404223 85.357306 -1.142541 5.729706 -32.053413 0.000000 0.000000 0.000000 -7.125000 0.000000 0.000000 -36.616032 58.041196 12.796303 0.000000 0.000000 0.000000 -38.922602 10.066894 -60.984631 -65.118170 -57.526192 -38.630659 -10.843005 -45.336085 -52.072646 0.000000 0.000000 0.000000 7.125000 0.000000 0.000000 14.459330 -21.229940 19.180738
-8.342664 16.309900 0.221820 -18.225793 129.278327 -372.015187 0.000000 0.000000 0.000000 -23.773325 -0.050661 -0.409360 4.693045 13.013773 39.447400 0.795147 6.245081 15.906335 0.378591 3.944463 10.921482 0.000000 0.000000 0.000000 12.301425 -12.464332 -40.607280 -5.932328 -14.362416 44.709448 0.964921 -21.546960 -22.182905 -0.603543 4.941332 -13.748207 -6.353215 -1.638212 4.463812 -4.461509 -2.778819 -6.501319 -0.883487 -0.940398 -9.349761 -13.081448 -15.910963 11.459331 10.717329 -22.482002 -3.156763 5.379123 -11.480098 -0.068380 0.000000 0.000000 0.000000 4.945331 19.727680 -46.541095 123.756471 -55.222141 88.764868 2.056255 6.274267 -30.840651 0.000000 0.000000 0.000000 -7.125000 0.000000 0.000000 -32.452638 57.734203 10.871854 0.000000 0.000000 0.000000 -38.901412 12.798812 -63.303559 -62.326237 -56.897278 -36.283612 -12.840796 -48.202321 -53.799924 0.000000 0.000000 0.000000 7.125000 0.000000 0.000000 14.016464 -23.206311 18.816930
-7.406019 16.259284 0.218536 -10.742896 121.546110 -367.760219 0.000000 0.000000 0.000000 -15.464356 4.137472 -10.868746 8.874891 16.714395 55.638324 0.566167 11.137671 14.314607 1.150715 6.806656 19.145535 0.000000 0.000000 0.000000 20.629164 -13.406814 -36.231268 -5.943878 -14.373325 44.755252 0.252824 -15.026208 -18.463251 -1.493863 7.712222 -21.847710 -1.744849 -2.656521 5.589287 -2.546322 -3.798475 -6.668111 -1.214186 -1.740822 -10.308329 -11.886058 -14.200647 11.250981 10.822216 -20.025573 -2.533788 5.340851 -10.263082 -0.242692 0.000000 0.000000 0.000000 5.787428 17.234594 -53.618252 126.843710 -54.190843 91.284985 7.351060 8.384159 -27.985585 0.000000 0.000000 0.000000 -7.125000 0.000000 0.000000 -25.038218 56.347971 7.297238 0.000000 0.000000 0.000000 -42.411969 12.927180 -64.665851 -56.430592 -55.274746 -31.390177 -12.875807 -46.240221 -55.139929 0.000000 0.000000 0.000000 7.125000 0.000000 0.000000 14.320371 -24.468133 19.395428
-6.604843 16.274957 0.190344 -1.369756 110.816097 -358.850331 0.000000 0.000000 0.000000 -9.826716 6.307651 -22.128749 11.042813 17.955575 62.920158 -0.001408 3.356728 1.067381 0.360092 3.797649 10.515069 0.000000 0.000000 0.000000 27.104463 -11.261807 -31.207635 -5.413016 -13.833904 42.576958 -0.211579 -6.478896 -13.464296 -3.187685 10.984772 -32.237352 1.597545 -3.523114 5.277094 -0.615105 -4.497039 -6.906260 -0.913458 -2.267408 -10.501210 -9.658360 -12.010344 10.191892 11.391412 -16.742199 -1.366168 5.193061 -8.618064 -0.242884 0.000000 0.000000 0.000000 6.580280 14.404554 -61.874812 129.056568 -53.368345 93.070358 9.192810 7.258053 -27.109616 0.000000 0.000000 0.000000 -7.125000 0.000000 0.000000 -22.617340 55.922491 6.292476 0.000000 0.000000 0.000000 -46.790944 9.900725 -64.427907 -52.484857 -53.949383 -28.171207 -11.425358 -42.998098 -57.986270 0.000000 0.000000 0.000000 7.125000 0.000000 0.000000 15.581785 -26.868359 21.471116
-5.890358 16.172469 0.119578 15.026059 97.167014 -340.323210 0.000000 0.000000 0.000000 -8.476679 -0.641934 -30.378739 10.554504 17.709400 61.325269 0.377042 5.229129 -14.663300 0.119393 2.227616 6.135129 0.000000 0.000000 0.000000 29.649253 -4.632969 -27.369449 -5.096623 -13.491742 41.238255 -0.332139 0.285796 -10.809646 -3.224318 11.049025 -32.446074 1.735906 -3.932561 2.702045 0.352224 -5.004239 -6.721682 -0.089615 -2.498555 -8.701432 -7.221505 -8.932077 8.861131 13.332477 -12.262348 -0.366956 5.382317 -6.362806 -0.259475 0.000000 0.000000 0.000000 8.106149 11.036703 -70.702079 129.719286 -53.108083 93.601522 10.637436 4.827754 -26.223894 0.000000 0.000000 0.000000 -7.125000 0.000000 0.000000 -20.620890 55.386452 5.425465 0.000000 0.000000 0.000000 -51.269381 2.469513 -63.294340 -52.216801 -53.851326 -27.954536 -13.757213 -40.635161 -60.450933 0.000000 0.000000 0.000000 7.125000 0.000000 0.000000 15.444631 -29.543195 21.535620
-5.209571 16.127520 -0.048906 162.844503 101.986793 -190.428658 0.000000 0.000000 0.000000 -4.643578 -7.096644 -34.012128 8.089167 16.178979 52.874219 1.072719 5.978938 -22.603451 0.037309 0.845823 2.325289 0.000000 0.000000 0.000000 30.304320 1.444602 -23.296742 -4.699059 -13.036062 39.504551 -0.011712 8.021597 -5.917398 -1.964649 8.786097 -25.132363 1.769359 -3.570608 1.515490 0.931036 -4.519182 -6.693082 0.363113 -2.255599 -7.913853 -4.799420 -5.136398 7.345430 14.511755 -6.983830 1.070977 5.281043 -3.643591 -0.213264 0.000000 0.000000 0.000000 9.666494 9.722510 -78.218854 129.761732 -53.091107 93.635486 10.253145 2.070310 -26.146130 0.000000 0.000000 0.000000 -7.125000 0.000000 0.000000 -20.954126 55.239238 5.442692 0.000000 0.000000 0.000000 -57.849187 -7.710620 -60.953775 -52.476932 -53.946847 -28.164674 -12.272433 -33.326351 -61.767976 0.000000 0.000000 0.000000 7.125000 0.000000 0.000000 16.342683 -30.497460 22.936461
-4.470847 16.255384 -0.311379 174.254230 123.854376 -178.969102 0.000000 0.000000 0.000000 -0.410404 -15.978078 -30.180669 5.202087 13.598125 41.669285 1.174463 0.957116 -20.863554 3.546798 -11.422478 -33.853880 0.000000 0.000000 0.000000 27.380850 6.246618 -17.314748 -3.951578 -12.094643 36.069001 0.771476 15.991486 1.023720 -1.099673 6.660102 -18.713367 1.272713 -2.509041 2.113124 0.491596 -3.194617 -6.225041 0.081739 -1.606171 -7.731402 -2.792242 -1.052449 5.218081 14.782222 -1.612827 3.411668 4.924611 -0.792158 0.263678 0.000000 0.000000 0.000000 10.493955 8.891220 -83.576674 129.228858 -53.301715 93.208739 6.809257 0.090323 -27.500106 0.000000 0.000000 0.000000 -7.125000 0.000000 0.000000 -25.197067 55.821542 6.956661 0.000000 0.000000 0.000000 -66.444168 -18.859584 -56.976130 -49.714782 -52.877003 -25.947322 -8.443049 -24.361023 -62.249004 0.000000 0.000000 0.000000 7.125000 0.000000 0.000000 17.740675 -30.357273 24.999402
-3.579481 16.397457 -0.658338 178.705806 148.261137 -175.249035 0.000000 0.000000 0.000000 0.955125 -23.800167 -25.718628 3.921836 12.055183 35.928153 0.117608 -13.742184 -11.308066 4.967157 -13.334567 -40.656112 0.000000 0.000000 0.000000 21.163052 12.368782 -14.380153 -3.574107 -11.570918 34.230608 1.577020 21.548158 7.187091 -0.776255 5.622706 -15.694149 1.293763 -1.007279 2.908732 -0.940902 -1.298295 -5.862882 -1.588683 -0.736625 -7.815031 -1.979264 3.356133 3.969260 15.368211 4.157471 4.734811 4.891213 2.177909 0.332241 0.000000 0.000000 0.000000 10.769105 7.155539 -86.889836 128.175282 -53.705355 92.361827 3.696529 -4.351581 -27.100634 0.000000 0.000000 0.000000 -7.125000 0.000000 0.000000 -27.951611 54.849785 7.176931 0.000000 0.000000 0.000000 -76.853134 -29.644103 -52.423385 -46.080406 -51.286662 -23.078804 -7.598259 -18.837532 -62.827958 0.000000 0.000000 0.000000 7.125000 0.000000 0.000000 18.172076 -30.774468 25.682690
-2.437199 16.585322 -0.982270 180.963912 175.140608 -173.269651 0.000000 0.000000 0.000000 -2.446879 -25.188170 -21.561822 4.022184 12.189823 36.406798 -2.400291 -26.209300 10.423457 0.594194 -4.779731 -13.316840 0.000000 0.000000 0.000000 12.988811 16.340652 -17.796997 -3.225687 -11.051454 32.453918 3.210039 30.039590 16.497149 -0.436827 4.241175 -11.756066 2.495753 0.965192 3.774737 -2.914404 1.290772 -5.984195 -4.629774 0.371929 -8.297298 -0.855365 7.160873 1.480132 15.226747 8.917058 7.083486 4.750047 4.746738 1.089879 0.000000 0.000000 0.000000 9.644097 5.381987 -87.648712 126.936683 -54.158495 91.360544 0.798231 -6.366294 -27.716119 0.000000 0.000000 0.000000 -7.125000 0.000000 0.000000 -31.138820 54.834310 8.098855 0.000000 0.000000 0.000000 -88.620978 -39.120322 -49.367946 -45.115309 -50.824825 -22.328101 -2.116305 -11.593297 -63.372867 0.000000 0.000000 0.000000 7.125000 0.000000 0.000000 20.068853 -30.623650 28.544845
